<?xml version="1.0" encoding="iso-8859-1"?>
<!-- Generator: Adobe Illustrator 19.0.0, SVG Export Plug-In . SVG Version: 6.00 Build 0)  -->
<svg version="1.1" id="Layer_1" xmlns="http://www.w3.org/2000/svg" xmlns:xlink="http://www.w3.org/1999/xlink" x="0px" y="0px"
	 viewBox="0 0 512 512" style="enable-background:new 0 0 512 512;" xml:space="preserve">
<g>
	<g>
		<g>
			<path style="fill:#010101;" d="M490.259,0H21.741C9.783,0,0,9.783,0,21.741v468.518C0,502.217,9.783,512,21.741,512h121.75
				h226.106h121.75c10.87,0,20.654-9.783,20.654-21.741V21.741C512,9.783,502.217,0,490.259,0z M164.144,469.605V251.108h183.711
				v218.497H164.144z M469.605,469.605h-77.181V229.367c0-11.958-9.783-21.741-21.741-21.741H143.49
				c-11.958,0-21.741,9.783-21.741,21.741v240.238H43.482V43.482h426.123V469.605z"/>
			<path style="fill:#010101;" d="M192.408,145.665h128.272c11.958,0,21.741-8.696,22.828-21.741
				c0-11.958-9.783-21.741-21.741-21.741H192.408c-11.958,0-21.741,9.783-21.741,21.741
				C170.667,135.881,180.45,145.665,192.408,145.665z"/>
		</g>
	</g>
</g>
<g>
</g>
<g>
</g>
<g>
</g>
<g>
</g>
<g>
</g>
<g>
</g>
<g>
</g>
<g>
</g>
<g>
</g>
<g>
</g>
<g>
</g>
<g>
</g>
<g>
</g>
<g>
</g>
<g>
</g>
</svg>
